<?xml version="1.0" encoding="UTF-8" standalone="no"?>
<!-- Created with Inkscape (http://www.inkscape.org/) -->

<svg
   width="100"
   height="100"
   viewBox="0 0 26.458333 26.458333"
   version="1.1"
   id="svg5"
   inkscape:version="1.2.2 (b0a8486541, 2022-12-01)"
   sodipodi:docname="arrow_down.svg"
   xmlns:inkscape="http://www.inkscape.org/namespaces/inkscape"
   xmlns:sodipodi="http://sodipodi.sourceforge.net/DTD/sodipodi-0.dtd"
   xmlns="http://www.w3.org/2000/svg"
   xmlns:svg="http://www.w3.org/2000/svg">
  <sodipodi:namedview
     id="namedview7"
     pagecolor="#ffffff"
     bordercolor="#666666"
     borderopacity="1.0"
     inkscape:showpageshadow="2"
     inkscape:pageopacity="0.0"
     inkscape:pagecheckerboard="0"
     inkscape:deskcolor="#d1d1d1"
     inkscape:document-units="mm"
     showgrid="false"
     inkscape:zoom="7.0228425"
     inkscape:cx="50.40694"
     inkscape:cy="58.096134"
     inkscape:window-width="2256"
     inkscape:window-height="1380"
     inkscape:window-x="-12"
     inkscape:window-y="-12"
     inkscape:window-maximized="1"
     inkscape:current-layer="layer1" />
  <defs
     id="defs2">
    <clipPath
       clipPathUnits="userSpaceOnUse"
       id="clipPath496">
      <g
         id="g500"
         transform="matrix(2.8346458,0,0,-2.8346457,-1117.8994,1057.332)">
        <path
           d="M 220,7.6e-6 H 897.3333 V 381.00001 H 220 Z"
           id="path498"
           style="stroke-width:0.352778" />
      </g>
    </clipPath>
  </defs>
  <g
     inkscape:label="Ebene 1"
     inkscape:groupmode="layer"
     id="layer1">
    <g
       id="g272"
       transform="matrix(-0.02241527,0,0,0.0252626,23.66847,1.9750667e-6)"
       clip-path="url(#clipPath496)">
      <path
         d="m 0,0 c -30.241,0 -72.609,15.674 -100.828,59.664 -38.049,59.315 -21.343,97.443 -10.289,122.675 0.811,1.851 464.365,795.959 464.365,795.959 4.83,9.215 38.515,68.35 107.221,68.886 1.153,0.081 2.658,0.148 4.489,0.148 14.617,0 65.408,-4.957 105.266,-68.728 38.53,-61.649 453.337,-781.453 470.976,-812.064 1.328,-2.3 32.514,-57.558 -0.146,-112.827 C 1010.871,2.632 953.141,0.044 941.875,0.043 941.282,0.043 0.974,0 0,0"
         style="fill:#000000;fill-opacity:1;fill-rule:nonzero;stroke:none"
         id="path274" />
    </g>
  </g>
</svg>
