<?xml version="1.0" encoding="UTF-8" standalone="no"?>
<svg
   version="1.1"
   viewBox="0 0 50 50"
   id="svg12"
   sodipodi:docname="check.svg"
   inkscape:version="1.2.2 (b0a8486541, 2022-12-01)"
   xmlns:inkscape="http://www.inkscape.org/namespaces/inkscape"
   xmlns:sodipodi="http://sodipodi.sourceforge.net/DTD/sodipodi-0.dtd"
   xmlns="http://www.w3.org/2000/svg"
   xmlns:svg="http://www.w3.org/2000/svg">
  <defs
     id="defs16" />
  <sodipodi:namedview
     id="namedview14"
     pagecolor="#ffffff"
     bordercolor="#666666"
     borderopacity="1.0"
     inkscape:pageshadow="2"
     inkscape:pageopacity="0.0"
     inkscape:pagecheckerboard="0"
     showgrid="false"
     inkscape:zoom="17.74"
     inkscape:cx="24.971815"
     inkscape:cy="24.971815"
     inkscape:window-width="2256"
     inkscape:window-height="1380"
     inkscape:window-x="-12"
     inkscape:window-y="-12"
     inkscape:window-maximized="1"
     inkscape:current-layer="svg12"
     inkscape:showpageshadow="2"
     inkscape:deskcolor="#d1d1d1" />
  <g
     transform="matrix(1.0402963,0,0,1.0402963,-1.0074076,-1043.7996)"
     id="g10"
     style="fill:#ffffff">
    <g
       fill="#45d6a9"
       id="g8"
       style="fill:#ffffff">
      <path
         d="m 25,1003.6 c -13.112,0 -23.781,10.667 -23.781,23.779 1.49e-5,13.112 10.669,23.781 23.781,23.781 13.112,0 23.781,-10.669 23.781,-23.781 C 48.780985,1014.267 38.112,1003.6 25,1003.6 Z m 0,3.6114 c 11.16,0 20.168,9.0078 20.168,20.168 -1.3e-5,11.16 -9.0078,20.17 -20.168,20.17 -11.16,10e-5 -20.168,-9.0097 -20.168,-20.17 1.27e-5,-11.16 9.0078,-20.168 20.168,-20.168 z"
         color="#000000"
         color-rendering="auto"
         image-rendering="auto"
         shape-rendering="auto"
         solid-color="#000000"
         style="text-indent:0;text-decoration-line:none;text-decoration-style:solid;text-decoration-color:#000000;text-transform:none;white-space:normal;isolation:auto;mix-blend-mode:normal;fill:#ffffff"
         id="path2" />
      <g
         transform="matrix(0.61243,0,0,0.61243,7.0239,405.45)"
         id="g6"
         style="fill:#ffffff">
        <path
           transform="matrix(0.91761,0,0,0.91761,2.0598,1003)"
           d="m 10.641,5.4531 c -0.59364,0 -1.1877,0.22872 -1.6426,0.68359 l -2.8613,2.8613 c -0.90975,0.90975 -0.90975,2.3735 0,3.2832 l 12.719,12.719 6.1445,6.1445 6.1445,-6.1445 22.204,-22.204 c 0.90975,-0.90975 0.90975,-2.3735 0,-3.2832 l -2.8613,-2.8613 c -0.90975,-0.90975 -2.3735,-0.90975 -3.2832,0 l -22.204,22.204 -12.719,-12.719 C 11.82673,5.68182 11.2346,5.4531 10.641,5.4531 Z"
           fill="#45d6a9"
           id="path4"
           style="fill:#ffffff" />
      </g>
    </g>
  </g>
</svg>
