<?xml version="1.0" encoding="UTF-8" standalone="no"?>
<svg
   version="1.1"
   viewBox="0 0 500 469.19299"
   id="svg4"
   sodipodi:docname="exit_symbol.svg"
   width="500"
   height="469.19299"
   inkscape:version="1.3.2 (091e20e, 2023-11-25, custom)"
   xmlns:inkscape="http://www.inkscape.org/namespaces/inkscape"
   xmlns:sodipodi="http://sodipodi.sourceforge.net/DTD/sodipodi-0.dtd"
   xmlns="http://www.w3.org/2000/svg"
   xmlns:svg="http://www.w3.org/2000/svg">
  <defs
     id="defs4" />
  <sodipodi:namedview
     id="namedview4"
     pagecolor="#ffffff"
     bordercolor="#666666"
     borderopacity="1.0"
     inkscape:showpageshadow="2"
     inkscape:pageopacity="0.0"
     inkscape:pagecheckerboard="0"
     inkscape:deskcolor="#d1d1d1"
     inkscape:zoom="1.558"
     inkscape:cx="249.67908"
     inkscape:cy="250"
     inkscape:window-width="1920"
     inkscape:window-height="1017"
     inkscape:window-x="-8"
     inkscape:window-y="-8"
     inkscape:window-maximized="1"
     inkscape:current-layer="svg4" />
  <rect
     y="-1.4648437e-05"
     width="500"
     height="500"
     fill-opacity="0"
     id="rect1"
     x="0" />
  <g
     transform="matrix(1.4763146,0,0,1.4763146,-175.60881,-944.72642)"
     id="g3"
     style="fill:#ffffff">
    <g
       transform="matrix(0,-0.55235,0.55235,0,99.37,938.33)"
       id="g2"
       style="fill:#ffffff">
      <g
         transform="translate(0,-552.36)"
         id="g1"
         style="fill:#ffffff">
        <path
           d="m 233.02,587.81 c -8.31,2e-5 -15,6.69 -15,15 v 300.56 l -72.657,-72.683 c -2.9375,-2.9385 -6.7595,-4.4062 -10.594,-4.4062 -3.8345,0 -7.6557,1.4682 -10.594,4.4062 l -24,24 c -5.8761,5.8761 -5.8761,15.343 0,21.219 l 100.5,100.5 16.094,16.125 c 0.0314,0.031 0.0627,0.062 0.0937,0.094 0.0311,0.031 0.0619,0.063 0.0937,0.094 l 16.5,16.5 c 0,0 7.5805,7.7035 16.531,7.7035 8.8715,0 16.594,-7.7973 16.594,-7.7973 l 16.625,-16.594 116.62,-116.62 c 5.8761,-5.8761 5.8761,-15.343 0,-21.219 l -24,-24 c -5.8761,-5.8761 -15.311,-5.8761 -21.188,0 l -72.683,72.683 v -300.56 c 0,-8.31 -6.69,-15 -15,-15 z"
           id="path1"
           style="fill:#ffffff" />
      </g>
    </g>
    <path
       transform="translate(0,552.36)"
       d="m 283.19,87.562 c -15.264,0 -27.531,12.298 -27.531,27.562 v 7.75 h 152.56 c 7.8141,0 14.094,6.3109 14.094,14.125 v 218.94 c 0,7.8141 -6.2796,14.125 -14.094,14.125 h -152.56 v 7.75 c 0,15.264 12.267,27.562 27.531,27.562 h 146.88 c 15.264,0 27.562,-12.298 27.562,-27.562 v -262.69 c 0,-15.264 -12.298,-27.562 -27.562,-27.562 z"
       color="#000000"
       id="path2"
       style="fill:#ffffff" />
  </g>
</svg>
