<?xml version="1.0" encoding="UTF-8" standalone="no"?>
<svg
   enable-background="new 0 0 128 128"
   version="1.1"
   viewBox="0 0 50 49.796003"
   id="svg1"
   sodipodi:docname="globe.svg"
   width="50"
   height="49.796001"
   inkscape:version="1.3.2 (091e20e, 2023-11-25, custom)"
   inkscape:export-filename="globe.png"
   inkscape:export-xdpi="96"
   inkscape:export-ydpi="96"
   xmlns:inkscape="http://www.inkscape.org/namespaces/inkscape"
   xmlns:sodipodi="http://sodipodi.sourceforge.net/DTD/sodipodi-0.dtd"
   xmlns="http://www.w3.org/2000/svg"
   xmlns:svg="http://www.w3.org/2000/svg">
  <defs
     id="defs1">
    <clipPath
       clipPathUnits="userSpaceOnUse"
       id="clipPath2">
      <path
         d="M 0,283.465 H 283.465 V 0 H 0 Z"
         transform="translate(-283.46481,-43.572304)"
         id="path2" />
    </clipPath>
    <clipPath
       clipPathUnits="userSpaceOnUse"
       id="clipPath5">
      <path
         d="M 0,283.465 H 283.465 V 0 H 0 Z"
         transform="matrix(1.3333333,0,0,-1.3333333,0,377.95333)"
         id="path5" />
    </clipPath>
    <clipPath
       clipPathUnits="userSpaceOnUse"
       id="clipPath3">
      <path
         d="M 0,262.361 H 261.77 V 0.555664 H 0 Z"
         transform="translate(-239.97561,-64.806604)"
         id="path3" />
    </clipPath>
    <clipPath
       clipPathUnits="userSpaceOnUse"
       id="clipPath7">
      <path
         d="M 0,283.465 H 283.465 V 0 H 0 Z"
         transform="translate(-140.2798,-78.798799)"
         id="path7" />
    </clipPath>
    <clipPath
       clipPathUnits="userSpaceOnUse"
       id="clipPath9">
      <path
         d="M 0,283.465 H 283.465 V 0 H 0 Z"
         transform="translate(-140.2798,-137.251)"
         id="path9" />
    </clipPath>
    <clipPath
       clipPathUnits="userSpaceOnUse"
       id="clipPath11">
      <path
         d="M 0,283.465 H 283.465 V 0 H 0 Z"
         transform="translate(-140.2798,-240.96391)"
         id="path11" />
    </clipPath>
    <clipPath
       clipPathUnits="userSpaceOnUse"
       id="clipPath13">
      <path
         d="M 0,283.465 H 283.465 V 0 H 0 Z"
         transform="translate(-140.2798,-196.0273)"
         id="path13" />
    </clipPath>
    <clipPath
       clipPathUnits="userSpaceOnUse"
       id="clipPath15">
      <path
         d="M 0,283.465 H 283.465 V 0 H 0 Z"
         transform="translate(-61.832501,-205.50631)"
         id="path15" />
    </clipPath>
    <clipPath
       clipPathUnits="userSpaceOnUse"
       id="clipPath17">
      <path
         d="M 0,283.465 H 283.465 V 0 H 0 Z"
         transform="translate(-39.650401,-146.7314)"
         id="path17" />
    </clipPath>
    <clipPath
       clipPathUnits="userSpaceOnUse"
       id="clipPath19">
      <path
         d="M 0,283.465 H 283.465 V 0 H 0 Z"
         transform="translate(-227.76861,-196.0273)"
         id="path19" />
    </clipPath>
    <clipPath
       clipPathUnits="userSpaceOnUse"
       id="clipPath21">
      <path
         d="M 0,283.465 H 283.465 V 0 H 0 Z"
         transform="translate(-54.890602,-88.275402)"
         id="path21" />
    </clipPath>
    <clipPath
       clipPathUnits="userSpaceOnUse"
       id="clipPath23">
      <path
         d="M 0,283.465 H 283.465 V 0 H 0 Z"
         transform="translate(-61.580602,-78.798799)"
         id="path23" />
    </clipPath>
    <clipPath
       clipPathUnits="userSpaceOnUse"
       id="clipPath25">
      <path
         d="M 0,283.465 H 283.465 V 0 H 0 Z"
         transform="translate(-149.76171,-88.275402)"
         id="path25" />
    </clipPath>
    <clipPath
       clipPathUnits="userSpaceOnUse"
       id="clipPath27">
      <path
         d="M 0,283.465 H 283.465 V 0 H 0 Z"
         transform="translate(-159.21291,-41.675801)"
         id="path27" />
    </clipPath>
    <clipPath
       clipPathUnits="userSpaceOnUse"
       id="clipPath29">
      <path
         d="M 0,283.465 H 283.465 V 0 H 0 Z"
         transform="translate(-243.2119,-137.251)"
         id="path29" />
    </clipPath>
    <clipPath
       clipPathUnits="userSpaceOnUse"
       id="clipPath31">
      <path
         d="M 0,283.465 H 283.465 V 0 H 0 Z"
         transform="translate(-160.71291,-242.03911)"
         id="path31" />
    </clipPath>
    <clipPath
       clipPathUnits="userSpaceOnUse"
       id="clipPath33">
      <path
         d="M 0,283.465 H 283.465 V 0 H 0 Z"
         transform="translate(-149.76171,-205.50631)"
         id="path33" />
    </clipPath>
    <clipPath
       clipPathUnits="userSpaceOnUse"
       id="clipPath35">
      <path
         d="M 0,283.465 H 283.465 V 0 H 0 Z"
         transform="translate(-149.76171,-146.7314)"
         id="path35" />
    </clipPath>
    <clipPath
       clipPathUnits="userSpaceOnUse"
       id="clipPath37">
      <path
         d="M 0,283.465 H 283.465 V 0 H 0 Z"
         transform="translate(-149.76171,-45.113299)"
         id="path37" />
    </clipPath>
    <clipPath
       clipPathUnits="userSpaceOnUse"
       id="clipPath39">
      <path
         d="M 0,283.465 H 283.465 V 0 H 0 Z"
         transform="translate(-187.9834,-252.96291)"
         id="path39" />
    </clipPath>
    <clipPath
       clipPathUnits="userSpaceOnUse"
       id="clipPath41">
      <path
         d="M 0,283.465 H 283.465 V 0 H 0 Z"
         transform="translate(-226.0537,-78.722704)"
         id="path41" />
    </clipPath>
    <clipPath
       clipPathUnits="userSpaceOnUse"
       id="clipPath2-1">
      <path
         d="M 0,283.465 H 283.465 V 0 H 0 Z"
         transform="translate(-283.46481,-43.572304)"
         id="path2-1" />
    </clipPath>
    <clipPath
       clipPathUnits="userSpaceOnUse"
       id="clipPath5-5">
      <path
         d="M 0,283.465 H 283.465 V 0 H 0 Z"
         transform="matrix(1.3333333,0,0,-1.3333333,0,377.95333)"
         id="path5-7" />
    </clipPath>
    <clipPath
       clipPathUnits="userSpaceOnUse"
       id="clipPath3-4">
      <path
         d="M 0,262.361 H 261.77 V 0.555664 H 0 Z"
         transform="translate(-239.97561,-64.806604)"
         id="path3-2" />
    </clipPath>
    <clipPath
       clipPathUnits="userSpaceOnUse"
       id="clipPath7-6">
      <path
         d="M 0,283.465 H 283.465 V 0 H 0 Z"
         transform="translate(-140.2798,-78.798799)"
         id="path7-5" />
    </clipPath>
    <clipPath
       clipPathUnits="userSpaceOnUse"
       id="clipPath9-5">
      <path
         d="M 0,283.465 H 283.465 V 0 H 0 Z"
         transform="translate(-140.2798,-137.251)"
         id="path9-3" />
    </clipPath>
    <clipPath
       clipPathUnits="userSpaceOnUse"
       id="clipPath11-3">
      <path
         d="M 0,283.465 H 283.465 V 0 H 0 Z"
         transform="translate(-140.2798,-240.96391)"
         id="path11-8" />
    </clipPath>
    <clipPath
       clipPathUnits="userSpaceOnUse"
       id="clipPath13-3">
      <path
         d="M 0,283.465 H 283.465 V 0 H 0 Z"
         transform="translate(-140.2798,-196.0273)"
         id="path13-6" />
    </clipPath>
    <clipPath
       clipPathUnits="userSpaceOnUse"
       id="clipPath15-6">
      <path
         d="M 0,283.465 H 283.465 V 0 H 0 Z"
         transform="translate(-61.832501,-205.50631)"
         id="path15-7" />
    </clipPath>
    <clipPath
       clipPathUnits="userSpaceOnUse"
       id="clipPath17-8">
      <path
         d="M 0,283.465 H 283.465 V 0 H 0 Z"
         transform="translate(-39.650401,-146.7314)"
         id="path17-3" />
    </clipPath>
    <clipPath
       clipPathUnits="userSpaceOnUse"
       id="clipPath19-8">
      <path
         d="M 0,283.465 H 283.465 V 0 H 0 Z"
         transform="translate(-227.76861,-196.0273)"
         id="path19-0" />
    </clipPath>
    <clipPath
       clipPathUnits="userSpaceOnUse"
       id="clipPath21-5">
      <path
         d="M 0,283.465 H 283.465 V 0 H 0 Z"
         transform="translate(-54.890602,-88.275402)"
         id="path21-6" />
    </clipPath>
    <clipPath
       clipPathUnits="userSpaceOnUse"
       id="clipPath23-5">
      <path
         d="M 0,283.465 H 283.465 V 0 H 0 Z"
         transform="translate(-61.580602,-78.798799)"
         id="path23-8" />
    </clipPath>
    <clipPath
       clipPathUnits="userSpaceOnUse"
       id="clipPath25-3">
      <path
         d="M 0,283.465 H 283.465 V 0 H 0 Z"
         transform="translate(-149.76171,-88.275402)"
         id="path25-7" />
    </clipPath>
    <clipPath
       clipPathUnits="userSpaceOnUse"
       id="clipPath27-7">
      <path
         d="M 0,283.465 H 283.465 V 0 H 0 Z"
         transform="translate(-159.21291,-41.675801)"
         id="path27-4" />
    </clipPath>
    <clipPath
       clipPathUnits="userSpaceOnUse"
       id="clipPath29-5">
      <path
         d="M 0,283.465 H 283.465 V 0 H 0 Z"
         transform="translate(-243.2119,-137.251)"
         id="path29-7" />
    </clipPath>
    <clipPath
       clipPathUnits="userSpaceOnUse"
       id="clipPath31-5">
      <path
         d="M 0,283.465 H 283.465 V 0 H 0 Z"
         transform="translate(-160.71291,-242.03911)"
         id="path31-7" />
    </clipPath>
    <clipPath
       clipPathUnits="userSpaceOnUse"
       id="clipPath33-3">
      <path
         d="M 0,283.465 H 283.465 V 0 H 0 Z"
         transform="translate(-149.76171,-205.50631)"
         id="path33-7" />
    </clipPath>
    <clipPath
       clipPathUnits="userSpaceOnUse"
       id="clipPath35-0">
      <path
         d="M 0,283.465 H 283.465 V 0 H 0 Z"
         transform="translate(-149.76171,-146.7314)"
         id="path35-5" />
    </clipPath>
    <clipPath
       clipPathUnits="userSpaceOnUse"
       id="clipPath37-6">
      <path
         d="M 0,283.465 H 283.465 V 0 H 0 Z"
         transform="translate(-149.76171,-45.113299)"
         id="path37-2" />
    </clipPath>
    <clipPath
       clipPathUnits="userSpaceOnUse"
       id="clipPath39-5">
      <path
         d="M 0,283.465 H 283.465 V 0 H 0 Z"
         transform="translate(-187.9834,-252.96291)"
         id="path39-2" />
    </clipPath>
    <clipPath
       clipPathUnits="userSpaceOnUse"
       id="clipPath41-4">
      <path
         d="M 0,283.465 H 283.465 V 0 H 0 Z"
         transform="translate(-226.0537,-78.722704)"
         id="path41-7" />
    </clipPath>
  </defs>
  <sodipodi:namedview
     id="namedview1"
     pagecolor="#ffffff"
     bordercolor="#666666"
     borderopacity="1.0"
     inkscape:showpageshadow="2"
     inkscape:pageopacity="0.0"
     inkscape:pagecheckerboard="0"
     inkscape:deskcolor="#d1d1d1"
     inkscape:zoom="15.665533"
     inkscape:cx="24.991169"
     inkscape:cy="24.863501"
     inkscape:window-width="1920"
     inkscape:window-height="1017"
     inkscape:window-x="-8"
     inkscape:window-y="-8"
     inkscape:window-maximized="1"
     inkscape:current-layer="svg1" />
  <g
     id="g1"
     transform="matrix(0.18313052,0,0,0.18313052,-2.3916981,0.22667825)"
     style="fill:#ffffff;fill-opacity:1;stroke:#ffffff;stroke-width:1.54213;stroke-dasharray:none;stroke-opacity:1">
    <path
       id="path6"
       d="M 0,0 H -24.677 C -18.202,-11.736 -9.968,-23.4 0,-34.964 Z"
       style="fill:#ffffff;fill-opacity:1;fill-rule:nonzero;stroke:#ffffff;stroke-width:1.15659;stroke-dasharray:none;stroke-opacity:1"
       transform="matrix(1.3333333,0,0,-1.3333333,148.03973,218.88827)"
       clip-path="url(#clipPath7-6)" />
    <path
       id="path8"
       d="m 0,0 h -42.363 c 0.901,-16.384 5.201,-32.738 12.833,-48.976 H 0 Z"
       style="fill:#ffffff;fill-opacity:1;fill-rule:nonzero;stroke:#ffffff;stroke-width:1.15659;stroke-dasharray:none;stroke-opacity:1"
       transform="matrix(1.3333333,0,0,-1.3333333,148.03973,140.952)"
       clip-path="url(#clipPath9-5)" />
    <path
       id="path10"
       d="M 0,0 C -5.875,-5.975 -16.819,-18.294 -26.139,-35.458 H 0 Z"
       style="fill:#ffffff;fill-opacity:1;fill-rule:nonzero;stroke:#ffffff;stroke-width:1.15659;stroke-dasharray:none;stroke-opacity:1"
       transform="matrix(1.3333333,0,0,-1.3333333,148.03973,2.668133)"
       clip-path="url(#clipPath11-3)" />
    <path
       id="path12"
       d="m 0,0 h -30.846 c -5.902,-12.993 -10.477,-28.153 -11.494,-45.017 -0.087,-1.426 -0.098,-2.853 -0.132,-4.279 H 0 Z"
       style="fill:#ffffff;fill-opacity:1;fill-rule:nonzero;stroke:#ffffff;stroke-width:1.15659;stroke-dasharray:none;stroke-opacity:1"
       transform="matrix(1.3333333,0,0,-1.3333333,148.03973,62.5836)"
       clip-path="url(#clipPath13-3)" />
    <path
       id="path14"
       d="M 0,0 H 41.462 C 49.896,16.877 60.128,29.707 67.368,37.627 40.192,34.359 16.284,20.366 0,0"
       style="fill:#ffffff;fill-opacity:1;fill-rule:nonzero;stroke:#ffffff;stroke-width:1.15659;stroke-dasharray:none;stroke-opacity:1"
       transform="matrix(1.3333333,0,0,-1.3333333,43.443333,49.94493)"
       clip-path="url(#clipPath15-6)" />
    <path
       id="path16"
       d="m 0,0 h 48.676 c 0.037,1.654 0.056,3.309 0.157,4.964 1.011,16.506 5.085,31.382 10.485,44.332 H 15.448 C 6.388,34.875 0.83,18.049 0,0"
       style="fill:#ffffff;fill-opacity:1;fill-rule:nonzero;stroke:#ffffff;stroke-width:1.15659;stroke-dasharray:none;stroke-opacity:1"
       transform="matrix(1.3333333,0,0,-1.3333333,13.8672,128.31147)"
       clip-path="url(#clipPath17-8)" />
    <path
       id="path18"
       d="m 0,0 h -37.814 c 5.4,-12.95 9.47,-27.826 10.48,-44.332 0.102,-1.655 0.12,-3.31 0.158,-4.964 H 15.443 C 14.615,-31.247 9.056,-14.42 0,0"
       style="fill:#ffffff;fill-opacity:1;fill-rule:nonzero;stroke:#ffffff;stroke-width:1.15659;stroke-dasharray:none;stroke-opacity:1"
       transform="matrix(1.3333333,0,0,-1.3333333,264.69147,62.5836)"
       clip-path="url(#clipPath19-8)" />
    <path
       id="path20"
       d="M 0,0 H 45.465 C 38.376,16.197 34.366,32.547 33.537,48.976 H -15.24 C -14.415,31.062 -8.938,14.351 0,0"
       style="fill:#ffffff;fill-opacity:1;fill-rule:nonzero;stroke:#ffffff;stroke-width:1.15659;stroke-dasharray:none;stroke-opacity:1"
       transform="matrix(1.3333333,0,0,-1.3333333,34.187467,206.2528)"
       clip-path="url(#clipPath21-5)" />
    <path
       id="path22"
       d="M 0,0 C 16.551,-20.871 41.074,-35.136 68.939,-38.115 58.428,-25.544 49.881,-12.825 43.283,0 Z"
       style="fill:#ffffff;fill-opacity:1;fill-rule:nonzero;stroke:#ffffff;stroke-width:1.15659;stroke-dasharray:none;stroke-opacity:1"
       transform="matrix(1.3333333,0,0,-1.3333333,43.107467,218.88827)"
       clip-path="url(#clipPath23-5)" />
    <path
       id="path24"
       d="m 0,0 h 28.412 c 7.63,16.237 11.931,32.592 12.836,48.976 H 0 Z"
       style="fill:#ffffff;fill-opacity:1;fill-rule:nonzero;stroke:#ffffff;stroke-width:1.15659;stroke-dasharray:none;stroke-opacity:1"
       transform="matrix(1.3333333,0,0,-1.3333333,160.68227,206.2528)"
       clip-path="url(#clipPath25-3)" />
    <path
       id="path26"
       d="M 0,0 C 25.013,4.422 46.894,17.988 62.07,37.123 H 24.843 C 18.417,24.635 10.135,12.25 0,0"
       style="fill:#ffffff;fill-opacity:1;fill-rule:nonzero;stroke:#ffffff;stroke-width:1.15659;stroke-dasharray:none;stroke-opacity:1"
       transform="matrix(1.3333333,0,0,-1.3333333,173.28387,268.3856)"
       clip-path="url(#clipPath27-7)" />
    <path
       id="path28"
       d="M 0,0 H -42.717 C -43.55,-16.429 -47.56,-32.778 -54.645,-48.976 H -15.24 C -6.301,-34.625 -0.825,-17.914 0,0"
       style="fill:#ffffff;fill-opacity:1;fill-rule:nonzero;stroke:#ffffff;stroke-width:1.15659;stroke-dasharray:none;stroke-opacity:1"
       transform="matrix(1.3333333,0,0,-1.3333333,285.28253,140.952)"
       clip-path="url(#clipPath29-5)" />
    <path
       id="path30"
       d="M 0,0 C 7.165,-7.987 16.861,-20.416 24.915,-36.533 H 60.316 C 45.457,-17.947 24.252,-4.663 0,0"
       style="fill:#ffffff;fill-opacity:1;fill-rule:nonzero;stroke:#ffffff;stroke-width:1.15659;stroke-dasharray:none;stroke-opacity:1"
       transform="matrix(1.3333333,0,0,-1.3333333,175.28387,1.234533)"
       clip-path="url(#clipPath31-5)" />
    <path
       id="path32"
       d="M 0,0 H 25.05 C 16.284,16.155 6.079,27.998 0,34.318 Z"
       style="fill:#ffffff;fill-opacity:1;fill-rule:nonzero;stroke:#ffffff;stroke-width:1.15659;stroke-dasharray:none;stroke-opacity:1"
       transform="matrix(1.3333333,0,0,-1.3333333,160.68227,49.94493)"
       clip-path="url(#clipPath33-3)" />
    <path
       id="path34"
       d="m 0,0 h 41.354 c -0.04,1.461 -0.05,2.922 -0.141,4.385 -1.032,16.836 -5.588,31.956 -11.464,44.911 H 0 Z"
       style="fill:#ffffff;fill-opacity:1;fill-rule:nonzero;stroke:#ffffff;stroke-width:1.15659;stroke-dasharray:none;stroke-opacity:1"
       transform="matrix(1.3333333,0,0,-1.3333333,160.68227,128.31147)"
       clip-path="url(#clipPath35-0)" />
    <path
       id="path36"
       d="M 0,0 C 9.482,11.143 17.32,22.381 23.558,33.686 H 0 Z"
       style="fill:#ffffff;fill-opacity:1;fill-rule:nonzero;stroke:#ffffff;stroke-width:1.15659;stroke-dasharray:none;stroke-opacity:1"
       transform="matrix(1.3333333,0,0,-1.3333333,160.68227,263.80227)"
       clip-path="url(#clipPath37-6)" />
  </g>
</svg>
