<?xml version="1.0" encoding="UTF-8" standalone="no"?>
<svg
   version="1.1"
   viewBox="0 0 50 50"
   id="svg12"
   sodipodi:docname="information.svg"
   inkscape:version="1.3.2 (091e20e, 2023-11-25, custom)"
   xmlns:inkscape="http://www.inkscape.org/namespaces/inkscape"
   xmlns:sodipodi="http://sodipodi.sourceforge.net/DTD/sodipodi-0.dtd"
   xmlns="http://www.w3.org/2000/svg"
   xmlns:svg="http://www.w3.org/2000/svg">
  <defs
     id="defs16" />
  <sodipodi:namedview
     id="namedview14"
     pagecolor="#ffffff"
     bordercolor="#666666"
     borderopacity="1.0"
     inkscape:pageshadow="2"
     inkscape:pageopacity="0.0"
     inkscape:pagecheckerboard="0"
     showgrid="false"
     inkscape:zoom="12.544074"
     inkscape:cx="16.94027"
     inkscape:cy="28.021199"
     inkscape:window-width="1920"
     inkscape:window-height="1017"
     inkscape:window-x="-8"
     inkscape:window-y="-8"
     inkscape:window-maximized="1"
     inkscape:current-layer="g8"
     inkscape:showpageshadow="2"
     inkscape:deskcolor="#d1d1d1" />
  <g
     transform="matrix(1.0402963,0,0,1.0402963,-1.0074076,-1043.7996)"
     id="g10"
     style="fill:#000000">
    <g
       fill="#45d6a9"
       id="g8"
       style="fill:#000000">
      <path
         d="m 25,1003.6 c -13.112,0 -23.781,10.667 -23.781,23.779 1.49e-5,13.112 10.669,23.781 23.781,23.781 13.112,0 23.781,-10.669 23.781,-23.781 C 48.780985,1014.267 38.112,1003.6 25,1003.6 Z m 0,3.6114 c 11.16,0 20.168,9.0078 20.168,20.168 -1.3e-5,11.16 -9.0078,20.17 -20.168,20.17 -11.16,10e-5 -20.168,-9.0097 -20.168,-20.17 1.27e-5,-11.16 9.0078,-20.168 20.168,-20.168 z"
         color="#000000"
         color-rendering="auto"
         image-rendering="auto"
         shape-rendering="auto"
         solid-color="#000000"
         style="text-indent:0;text-decoration-line:none;text-decoration-style:solid;text-decoration-color:#000000;text-transform:none;white-space:normal;isolation:auto;mix-blend-mode:normal;fill:#ffffff"
         id="path2" />
      <path
         style="font-weight:bold;font-size:36.8816px;line-height:1.25;font-family:Roboto;-inkscape-font-specification:'Roboto Bold';letter-spacing:0px;word-spacing:0px;stroke-width:0.922039;fill:#ffffff"
         d="m 27.611246,1041.0047 h -5.222492 v -19.4853 h 5.222492 z m -5.528638,-24.5277 q 0,-1.1706 0.774369,-1.927 0.792378,-0.7563 2.143023,-0.7563 1.332636,0 2.125014,0.7563 0.792378,0.7564 0.792378,1.927 0,1.1885 -0.810387,1.9449 -0.792378,0.7563 -2.107005,0.7563 -1.314628,0 -2.125014,-0.7563 -0.792378,-0.7564 -0.792378,-1.9449 z"
         id="text1"
         aria-label="i" />
    </g>
  </g>
</svg>
