<?xml version="1.0" encoding="UTF-8" standalone="no"?>
<svg
   enable-background="new 0 0 144 144"
   version="1.1"
   viewBox="0 0 99.606003 100"
   id="svg24"
   sodipodi:docname="link_icon.svg"
   width="99.606003"
   height="100"
   inkscape:version="1.2.2 (b0a8486541, 2022-12-01)"
   xmlns:inkscape="http://www.inkscape.org/namespaces/inkscape"
   xmlns:sodipodi="http://sodipodi.sourceforge.net/DTD/sodipodi-0.dtd"
   xmlns="http://www.w3.org/2000/svg"
   xmlns:svg="http://www.w3.org/2000/svg">
  <defs
     id="defs28" />
  <sodipodi:namedview
     id="namedview26"
     pagecolor="#ffffff"
     bordercolor="#666666"
     borderopacity="1.0"
     inkscape:showpageshadow="2"
     inkscape:pageopacity="0.0"
     inkscape:pagecheckerboard="0"
     inkscape:deskcolor="#d1d1d1"
     showgrid="false"
     inkscape:zoom="7.5138889"
     inkscape:cx="72"
     inkscape:cy="50.7061"
     inkscape:window-width="2256"
     inkscape:window-height="1380"
     inkscape:window-x="-12"
     inkscape:window-y="-12"
     inkscape:window-maximized="1"
     inkscape:current-layer="svg24" />
  <style
     type="text/css"
     id="style2">.st0{fill:#00A5CB;} .st1{fill:#0190B0;} .st2{fill:#FFFFFF;}</style>
  <g
     id="g551"
     transform="matrix(0.86399475,-0.86399475,0.86399475,0.86399475,-78.78372,51.889841)"
     style="fill:#ffffff">
    <g
       id="g313"
       transform="matrix(0.76045627,0.76045627,-0.76045627,0.76045627,74.024839,-34.24614)"
       style="fill:#ffffff">
      <path
         class="st2"
         d="m 59.2,98.4 c -4.4,4.4 -11.7,4.4 -16.1,0 -4.4,-4.4 -4.4,-11.7 0,-16.1 L 60.3,65 56.1,60.8 38.9,78.1 c -6.8,6.8 -6.8,17.8 0,24.6 6.8,6.8 17.8,6.8 24.6,0 L 80.7,85.5 76.5,81.3 Z"
         id="path8"
         style="fill:#ffffff" />
      <path
         class="st2"
         d="m 83.1,74.4 4.2,4.2 17.2,-17.2 c 6.8,-6.8 6.8,-17.8 0,-24.6 C 97.7,30 86.7,30 79.9,36.8 L 62.8,54.1 67,58.3 84.2,41.1 c 4.4,-4.4 11.7,-4.4 16.1,0 4.4,4.4 4.4,11.7 0,16.1 z"
         id="path10"
         style="fill:#ffffff" />
    </g>
    <rect
       style="fill:#ffffff;stroke-width:575.423;stroke-linecap:round"
       id="rect367"
       width="53.601418"
       height="8.0358686"
       x="48.70702"
       y="69.30246"
       ry="4.0179343" />
  </g>
</svg>
