<?xml version="1.0" encoding="UTF-8" standalone="no"?>
<!-- Created with Inkscape (http://www.inkscape.org/) -->

<svg
   width="100"
   height="100"
   viewBox="0 0 26.458333 26.458333"
   version="1.1"
   id="svg379"
   inkscape:version="1.2.2 (b0a8486541, 2022-12-01)"
   sodipodi:docname="window_icon.svg"
   xmlns:inkscape="http://www.inkscape.org/namespaces/inkscape"
   xmlns:sodipodi="http://sodipodi.sourceforge.net/DTD/sodipodi-0.dtd"
   xmlns="http://www.w3.org/2000/svg"
   xmlns:svg="http://www.w3.org/2000/svg">
  <sodipodi:namedview
     id="namedview381"
     pagecolor="#ffffff"
     bordercolor="#666666"
     borderopacity="1.0"
     inkscape:showpageshadow="2"
     inkscape:pageopacity="0.0"
     inkscape:pagecheckerboard="0"
     inkscape:deskcolor="#d1d1d1"
     inkscape:document-units="mm"
     showgrid="false"
     inkscape:zoom="10.82"
     inkscape:cx="50"
     inkscape:cy="50"
     inkscape:window-width="2256"
     inkscape:window-height="1380"
     inkscape:window-x="-12"
     inkscape:window-y="-12"
     inkscape:window-maximized="1"
     inkscape:current-layer="layer1" />
  <defs
     id="defs376">
    <clipPath
       clipPathUnits="userSpaceOnUse"
       id="clipPath620">
      <g
         id="g624"
         transform="matrix(5.9850333,0,0,-5.9850329,-89.437601,79.1945)">
        <path
           d="M -0.7156849,-1.0386916 H 27.105547 V 27.512363 H -0.7156849 Z"
           id="path622"
           style="stroke-width:0.167083" />
      </g>
    </clipPath>
    <clipPath
       clipPathUnits="userSpaceOnUse"
       id="clipPath626">
      <g
         id="g630"
         transform="matrix(5.9850333,0,0,-5.9850329,-102.6125,99.321297)">
        <path
           d="M -0.7156849,-1.0386916 H 27.105547 V 27.512363 H -0.7156849 Z"
           id="path628"
           style="stroke-width:0.167083" />
      </g>
    </clipPath>
    <clipPath
       clipPathUnits="userSpaceOnUse"
       id="clipPath632">
      <g
         id="g636"
         transform="matrix(5.9850333,0,0,-5.9850329,-32.022002,65.092697)">
        <path
           d="M -0.7156849,-1.0386916 H 27.105547 V 27.512363 H -0.7156849 Z"
           id="path634"
           style="stroke-width:0.167083" />
      </g>
    </clipPath>
    <clipPath
       clipPathUnits="userSpaceOnUse"
       id="clipPath638">
      <g
         id="g642"
         transform="matrix(5.9850333,0,0,-5.9850329,-32.022002,92.715796)">
        <path
           d="M -0.7156849,-1.0386916 H 27.105547 V 27.512363 H -0.7156849 Z"
           id="path640"
           style="stroke-width:0.167083" />
      </g>
    </clipPath>
    <clipPath
       clipPathUnits="userSpaceOnUse"
       id="clipPath644">
      <g
         id="g648"
         transform="matrix(5.9850333,0,0,-5.9850329,-79.375402,158.354)">
        <path
           d="M -0.7156849,-1.0386916 H 27.105547 V 27.512363 H -0.7156849 Z"
           id="path646"
           style="stroke-width:0.167083" />
      </g>
    </clipPath>
    <clipPath
       clipPathUnits="userSpaceOnUse"
       id="clipPath650">
      <g
         id="g654"
         transform="matrix(5.9850333,0,0,-5.9850329,-158.354,79.176999)">
        <path
           d="M -0.7156849,-1.0386916 H 27.105547 V 27.512363 H -0.7156849 Z"
           id="path652"
           style="stroke-width:0.167083" />
      </g>
    </clipPath>
  </defs>
  <g
     inkscape:label="Ebene 1"
     inkscape:groupmode="layer"
     id="layer1">
    <g
       id="g150"
       transform="matrix(0.16708345,0,0,-0.16708346,26.458333,13.229167)"
       clip-path="url(#clipPath650)"
       style="fill:#22884f;fill-opacity:1">
      <path
         d="m 0,0 c 0,-43.728 -35.449,-79.177 -79.177,-79.177 -43.728,0 -79.177,35.449 -79.177,79.177 0,43.728 35.449,79.177 79.177,79.177 C -35.449,79.177 0,43.728 0,0"
         style="fill:#22884f;fill-opacity:1;fill-rule:nonzero;stroke:none"
         id="path152" />
    </g>
    <g
       id="g154"
       transform="matrix(0.16708345,0,0,-0.16708346,13.262316,26.458334)"
       clip-path="url(#clipPath644)"
       style="fill:#2ba864;fill-opacity:1">
      <path
         d="m 0,0 c -43.728,0 -79.177,35.449 -79.177,79.177 0,43.728 35.449,79.177 79.177,79.177"
         style="fill:#2ba864;fill-opacity:1;fill-rule:nonzero;stroke:none"
         id="path156" />
    </g>
    <g
       id="g158"
       transform="matrix(0.16708345,0,0,-0.16708346,5.3503466,15.491276)"
       clip-path="url(#clipPath638)">
      <path
         d="M 0,0 H 54.273 C 45.816,3.731 39.601,11.58 38.104,21.018 H 0 c -4.327,0 -7.868,-4.729 -7.868,-10.509 C -7.868,4.729 -4.327,0 0,0"
         style="fill:#ffffff;fill-opacity:1;fill-rule:nonzero;stroke:none"
         id="path160" />
    </g>
    <g
       id="g162"
       transform="matrix(0.16708345,0,0,-0.16708346,5.3503466,10.875913)"
       clip-path="url(#clipPath632)">
      <path
         d="m 0,0 h 37.837 c 0.698,8.806 5.48,16.446 12.462,21.018 H 0 c -4.327,0 -7.868,-4.729 -7.868,-10.509 C -7.868,4.729 -4.327,0 0,0"
         style="fill:#ffffff;fill-opacity:1;fill-rule:nonzero;stroke:none"
         id="path164" />
    </g>
    <g
       id="g166"
       transform="matrix(0.16708345,0,0,-0.16708346,17.144851,16.594946)"
       clip-path="url(#clipPath626)">
      <path
         d="m 0,0 h -70.591 c -4.327,0 -7.868,-4.729 -7.868,-10.509 0,-5.78 3.541,-10.509 7.868,-10.509 H 0 c 4.327,0 7.868,4.729 7.868,10.509 C 7.868,-4.729 4.327,0 0,0"
         style="fill:#ffffff;fill-opacity:1;fill-rule:nonzero;stroke:none"
         id="path168" />
    </g>
    <g
       id="g170"
       transform="matrix(0.16708345,0,0,-0.16708346,14.943543,13.232091)"
       clip-path="url(#clipPath620)">
      <path
         d="m 0,0 c -2.874,2.86 -4.466,6.665 -4.482,10.712 -0.015,4.045 1.545,7.848 4.393,10.71 2.943,2.958 6.82,4.436 10.703,4.436 3.875,0 7.756,-1.473 10.719,-4.422 C 27.264,15.534 27.304,5.923 21.424,0.014 15.54,-5.896 5.93,-5.902 0,0 m 37.641,-11.773 -9.843,9.796 c 6.184,8.35 5.486,20.228 -2.11,27.789 -8.344,8.303 -21.871,8.286 -30.152,-0.035 -4.014,-4.033 -6.212,-9.392 -6.19,-15.088 0.021,-5.694 2.259,-11.044 6.3,-15.065 4.165,-4.145 9.622,-6.216 15.073,-6.216 4.492,0 8.966,1.429 12.725,4.24 l 9.842,-9.795 z"
         style="fill:#ffffff;fill-opacity:1;fill-rule:nonzero;stroke:none"
         id="path172" />
    </g>
  </g>
</svg>
